<svg xmlns="http://www.w3.org/2000/svg" xmlns:xlink="http://www.w3.org/1999/xlink" width="512" height="512" viewBox="0 0 512 512">
  <defs>
    <clipPath id="clip-hangman8">
      <rect width="512" height="512"/>
    </clipPath>
  </defs>
  <g id="hangman8" clip-path="url(#clip-hangman8)">
    <g id="base">
      <line id="Line_1" data-name="Line 1" x2="448" transform="translate(32 468)" fill="none" stroke="#000" stroke-width="24"/>
      <line id="Line_11" data-name="Line 11" y1="48" transform="translate(92 432)" fill="none" stroke="#000" stroke-width="8"/>
    </g>
    <g id="vertical">
      <line id="Line_2" data-name="Line 2" y2="448" transform="translate(92 32)" fill="none" stroke="#000" stroke-width="24"/>
      <line id="Line_12" data-name="Line 12" x2="48" transform="translate(92 48)" fill="none" stroke="#000" stroke-width="8"/>
    </g>
    <g id="horizontal">
      <line id="Line_3" data-name="Line 3" x1="344" transform="translate(88 48)" fill="none" stroke="#000" stroke-width="24"/>
    </g>
    <g id="support">
      <line id="Line_4" data-name="Line 4" x1="96" y2="96" transform="translate(88.5 48.5)" fill="none" stroke="#000" stroke-width="24"/>
    </g>
    <g id="rope">
      <line id="Line_5" data-name="Line 5" y1="72" transform="translate(348 56)" fill="none" stroke="#000" stroke-width="8"/>
    </g>
    <g id="face">
      <g id="Ellipse_2" data-name="Ellipse 2" transform="translate(316 120)" fill="none" stroke="#000" stroke-width="8">
        <circle cx="32" cy="32" r="32" stroke="none"/>
        <circle cx="32" cy="32" r="28" fill="none"/>
      </g>
      <line id="Line_13" data-name="Line 13" x2="8" y2="8" transform="translate(336 140)" fill="none" stroke="#000" stroke-width="4"/>
      <line id="Line_14" data-name="Line 14" x1="8" y2="8" transform="translate(336 140)" fill="none" stroke="#000" stroke-width="4"/>
      <line id="Line_15" data-name="Line 15" x2="8" y2="8" transform="translate(352 140)" fill="none" stroke="#000" stroke-width="4"/>
      <line id="Line_16" data-name="Line 16" x1="8" y2="8" transform="translate(352 140)" fill="none" stroke="#000" stroke-width="4"/>
      <line id="Line_17" data-name="Line 17" x2="24" transform="translate(336 162)" fill="none" stroke="#000" stroke-width="4"/>
    </g>
    <g id="torso">
      <line id="Line_6" data-name="Line 6" y1="92" transform="translate(348 192)" fill="none" stroke="#000" stroke-width="8"/>
    </g>
    <g id="arms" transform="translate(290 195.163)">
      <line id="Line_7" data-name="Line 7" y2="92" transform="matrix(0.985, -0.174, 0.174, 0.985, 66.012, -3.163)" fill="none" stroke="#000" stroke-width="8"/>
      <line id="Line_8" data-name="Line 8" y1="92" transform="matrix(-0.985, -0.174, 0.174, -0.985, 34.012, 87.439)" fill="none" stroke="#000" stroke-width="8"/>
    </g>
    <g id="legs" transform="translate(0 3.837)">
      <line id="Line_9" data-name="Line 9" y2="92" transform="matrix(0.985, -0.174, 0.174, 0.985, 356.012, 279.699)" fill="none" stroke="#000" stroke-width="8"/>
      <line id="Line_10" data-name="Line 10" y1="92" transform="matrix(-0.985, -0.174, 0.174, -0.985, 324.012, 370.301)" fill="none" stroke="#000" stroke-width="8"/>
    </g>
  </g>
</svg>
